<svg xmlns="http://www.w3.org/2000/svg" viewBox="0 0 512 512" width="512" height="512">
  <defs>
    <clipPath id="mpClip"><rect x="0" y="0" width="512" height="512" rx="112"/></clipPath>
    <pattern id="mpTex" width="128" height="128" patternUnits="userSpaceOnUse">
    <rect x="0" y="0" width="16" height="16" fill="#dc2626"/>
    <rect x="16" y="0" width="16" height="16" fill="#dc2626"/>
    <rect x="32" y="0" width="16" height="16" fill="#dc2626"/>
    <rect x="48" y="0" width="16" height="16" fill="#dc2626"/>
    <rect x="64" y="0" width="16" height="16" fill="#ef4444"/>
    <rect x="80" y="0" width="16" height="16" fill="#dc2626"/>
    <rect x="96" y="0" width="16" height="16" fill="#dc2626"/>
    <rect x="112" y="0" width="16" height="16" fill="#ef4444"/>
    <rect x="0" y="16" width="16" height="16" fill="#f87171"/>
    <rect x="16" y="16" width="16" height="16" fill="#dc2626"/>
    <rect x="32" y="16" width="16" height="16" fill="#dc2626"/>
    <rect x="48" y="16" width="16" height="16" fill="#dc2626"/>
    <rect x="64" y="16" width="16" height="16" fill="#ef4444"/>
    <rect x="80" y="16" width="16" height="16" fill="#991b1b"/>
    <rect x="96" y="16" width="16" height="16" fill="#f87171"/>
    <rect x="112" y="16" width="16" height="16" fill="#dc2626"/>
    <rect x="0" y="32" width="16" height="16" fill="#dc2626"/>
    <rect x="16" y="32" width="16" height="16" fill="#dc2626"/>
    <rect x="32" y="32" width="16" height="16" fill="#991b1b"/>
    <rect x="48" y="32" width="16" height="16" fill="#dc2626"/>
    <rect x="64" y="32" width="16" height="16" fill="#dc2626"/>
    <rect x="80" y="32" width="16" height="16" fill="#ef4444"/>
    <rect x="96" y="32" width="16" height="16" fill="#f87171"/>
    <rect x="112" y="32" width="16" height="16" fill="#ef4444"/>
    <rect x="0" y="48" width="16" height="16" fill="#991b1b"/>
    <rect x="16" y="48" width="16" height="16" fill="#dc2626"/>
    <rect x="32" y="48" width="16" height="16" fill="#f87171"/>
    <rect x="48" y="48" width="16" height="16" fill="#dc2626"/>
    <rect x="64" y="48" width="16" height="16" fill="#991b1b"/>
    <rect x="80" y="48" width="16" height="16" fill="#ef4444"/>
    <rect x="96" y="48" width="16" height="16" fill="#ef4444"/>
    <rect x="112" y="48" width="16" height="16" fill="#ef4444"/>
    <rect x="0" y="64" width="16" height="16" fill="#dc2626"/>
    <rect x="16" y="64" width="16" height="16" fill="#ef4444"/>
    <rect x="32" y="64" width="16" height="16" fill="#991b1b"/>
    <rect x="48" y="64" width="16" height="16" fill="#dc2626"/>
    <rect x="64" y="64" width="16" height="16" fill="#991b1b"/>
    <rect x="80" y="64" width="16" height="16" fill="#dc2626"/>
    <rect x="96" y="64" width="16" height="16" fill="#f87171"/>
    <rect x="112" y="64" width="16" height="16" fill="#dc2626"/>
    <rect x="0" y="80" width="16" height="16" fill="#ef4444"/>
    <rect x="16" y="80" width="16" height="16" fill="#dc2626"/>
    <rect x="32" y="80" width="16" height="16" fill="#dc2626"/>
    <rect x="48" y="80" width="16" height="16" fill="#dc2626"/>
    <rect x="64" y="80" width="16" height="16" fill="#dc2626"/>
    <rect x="80" y="80" width="16" height="16" fill="#dc2626"/>
    <rect x="96" y="80" width="16" height="16" fill="#ef4444"/>
    <rect x="112" y="80" width="16" height="16" fill="#991b1b"/>
    <rect x="0" y="96" width="16" height="16" fill="#ef4444"/>
    <rect x="16" y="96" width="16" height="16" fill="#dc2626"/>
    <rect x="32" y="96" width="16" height="16" fill="#dc2626"/>
    <rect x="48" y="96" width="16" height="16" fill="#ef4444"/>
    <rect x="64" y="96" width="16" height="16" fill="#f87171"/>
    <rect x="80" y="96" width="16" height="16" fill="#991b1b"/>
    <rect x="96" y="96" width="16" height="16" fill="#dc2626"/>
    <rect x="112" y="96" width="16" height="16" fill="#dc2626"/>
    <rect x="0" y="112" width="16" height="16" fill="#f87171"/>
    <rect x="16" y="112" width="16" height="16" fill="#dc2626"/>
    <rect x="32" y="112" width="16" height="16" fill="#dc2626"/>
    <rect x="48" y="112" width="16" height="16" fill="#dc2626"/>
    <rect x="64" y="112" width="16" height="16" fill="#991b1b"/>
    <rect x="80" y="112" width="16" height="16" fill="#dc2626"/>
    <rect x="96" y="112" width="16" height="16" fill="#dc2626"/>
    <rect x="112" y="112" width="16" height="16" fill="#dc2626"/>
    </pattern>
  </defs>

  <g clip-path="url(#mpClip)">
    <rect x="0" y="0" width="512" height="512" fill="url(#mpTex)"/>
    <rect x="0" y="0" width="512" height="16" fill="#ffffff" opacity="0.18"/>
    <rect x="0" y="0" width="16" height="512" fill="#ffffff" opacity="0.14"/>
    <rect x="0" y="496" width="512" height="16" fill="#000000" opacity="0.28"/>
    <rect x="496" y="0" width="16" height="512" fill="#000000" opacity="0.22"/>

    <g transform="translate(256,256) scale(0.86) translate(-256,-256)">
      <g transform="rotate(-38 256 256)">
        <rect x="90" y="196" width="140" height="110" rx="24" fill="#ffffff"/>
        <rect x="204" y="230" width="190" height="42" rx="21" fill="#ffffff"/>
        <circle cx="394" cy="251" r="23" fill="#ffffff"/>
      </g>
      <rect x="140" y="372" width="232" height="36" rx="14" fill="#ffffff" opacity="0.9"/>
    </g>
  </g>
</svg>
